<mxfile host="Electron" agent="Mozilla/5.0 (Windows NT 10.0; Win64; x64) AppleWebKit/537.36 (KHTML, like Gecko) draw.io/24.7.17 Chrome/128.0.6613.36 Electron/32.0.1 Safari/537.36" version="24.7.17">
  <diagram name="Page-1" id="4HmHEYtBcl-MZlgAi7pu">
    <mxGraphModel dx="3296" dy="1926" grid="1" gridSize="10" guides="1" tooltips="1" connect="1" arrows="1" fold="1" page="1" pageScale="1" pageWidth="850" pageHeight="1100" math="0" shadow="0">
      <root>
        <mxCell id="0" />
        <mxCell id="1" parent="0" />
        <mxCell id="G_zqbz2y6yFYz6wzq9T6-1" value="Ù‘Festival" style="rounded=1;arcSize=10;whiteSpace=wrap;html=1;align=center;" parent="1" vertex="1">
          <mxGeometry x="-1335" y="-511" width="100" height="40" as="geometry" />
        </mxCell>
        <mxCell id="G_zqbz2y6yFYz6wzq9T6-2" value="" style="shape=link;html=1;rounded=0;" parent="1" target="G_zqbz2y6yFYz6wzq9T6-1" edge="1" source="pOlUJS17UwHzJJt9zdOD-13">
          <mxGeometry relative="1" as="geometry">
            <mxPoint x="-1380" y="-491" as="sourcePoint" />
            <mxPoint x="-1385" y="-431" as="targetPoint" />
          </mxGeometry>
        </mxCell>
        <mxCell id="G_zqbz2y6yFYz6wzq9T6-3" value="1" style="resizable=0;html=1;whiteSpace=wrap;align=right;verticalAlign=bottom;" parent="G_zqbz2y6yFYz6wzq9T6-2" connectable="0" vertex="1">
          <mxGeometry x="1" relative="1" as="geometry">
            <mxPoint x="-57" as="offset" />
          </mxGeometry>
        </mxCell>
        <mxCell id="G_zqbz2y6yFYz6wzq9T6-4" value="Discount" style="rounded=1;arcSize=10;whiteSpace=wrap;html=1;align=center;" parent="1" vertex="1">
          <mxGeometry x="-1087.71" y="-511" width="100" height="40" as="geometry" />
        </mxCell>
        <mxCell id="G_zqbz2y6yFYz6wzq9T6-5" value="BeApply" style="shape=rhombus;perimeter=rhombusPerimeter;whiteSpace=wrap;html=1;align=center;" parent="1" vertex="1">
          <mxGeometry x="-1197.71" y="-520" width="70" height="60" as="geometry" />
        </mxCell>
        <mxCell id="G_zqbz2y6yFYz6wzq9T6-6" value="" style="shape=link;html=1;rounded=0;" parent="1" source="G_zqbz2y6yFYz6wzq9T6-1" target="G_zqbz2y6yFYz6wzq9T6-5" edge="1">
          <mxGeometry relative="1" as="geometry">
            <mxPoint x="-1137.71" y="-381" as="sourcePoint" />
            <mxPoint x="-977.71" y="-381" as="targetPoint" />
          </mxGeometry>
        </mxCell>
        <mxCell id="G_zqbz2y6yFYz6wzq9T6-7" value="1" style="resizable=0;html=1;whiteSpace=wrap;align=right;verticalAlign=bottom;" parent="G_zqbz2y6yFYz6wzq9T6-6" connectable="0" vertex="1">
          <mxGeometry x="1" relative="1" as="geometry" />
        </mxCell>
        <mxCell id="G_zqbz2y6yFYz6wzq9T6-8" value="" style="shape=link;html=1;rounded=0;" parent="1" source="G_zqbz2y6yFYz6wzq9T6-4" target="G_zqbz2y6yFYz6wzq9T6-5" edge="1">
          <mxGeometry relative="1" as="geometry">
            <mxPoint x="-1147.71" y="-401" as="sourcePoint" />
            <mxPoint x="-987.71" y="-401" as="targetPoint" />
          </mxGeometry>
        </mxCell>
        <mxCell id="G_zqbz2y6yFYz6wzq9T6-9" value="1" style="resizable=0;html=1;whiteSpace=wrap;align=right;verticalAlign=bottom;" parent="G_zqbz2y6yFYz6wzq9T6-8" connectable="0" vertex="1">
          <mxGeometry x="1" relative="1" as="geometry">
            <mxPoint x="8" as="offset" />
          </mxGeometry>
        </mxCell>
        <mxCell id="G_zqbz2y6yFYz6wzq9T6-10" value="Store" style="rounded=1;arcSize=10;whiteSpace=wrap;html=1;align=center;" parent="1" vertex="1">
          <mxGeometry x="-1640" y="-1010" width="100" height="40" as="geometry" />
        </mxCell>
        <mxCell id="G_zqbz2y6yFYz6wzq9T6-11" value="SaleFlow" style="rounded=1;arcSize=10;whiteSpace=wrap;html=1;align=center;" parent="1" vertex="1">
          <mxGeometry x="-1337.5" y="-930" width="100" height="40" as="geometry" />
        </mxCell>
        <mxCell id="G_zqbz2y6yFYz6wzq9T6-12" value="Product" style="rounded=1;arcSize=10;whiteSpace=wrap;html=1;align=center;" parent="1" vertex="1">
          <mxGeometry x="-1338" y="-800" width="100" height="40" as="geometry" />
        </mxCell>
        <mxCell id="G_zqbz2y6yFYz6wzq9T6-13" value="ProductFriendDiscount" style="rounded=1;arcSize=10;whiteSpace=wrap;html=1;align=center;rotation=0;" parent="1" vertex="1">
          <mxGeometry x="-1065" y="-800" width="155" height="40" as="geometry" />
        </mxCell>
        <mxCell id="G_zqbz2y6yFYz6wzq9T6-14" value="ToHave" style="shape=rhombus;perimeter=rhombusPerimeter;whiteSpace=wrap;html=1;align=center;" parent="1" vertex="1">
          <mxGeometry x="-1210" y="-810" width="120" height="60" as="geometry" />
        </mxCell>
        <mxCell id="G_zqbz2y6yFYz6wzq9T6-15" value="" style="endArrow=none;html=1;rounded=0;" parent="1" source="G_zqbz2y6yFYz6wzq9T6-13" target="G_zqbz2y6yFYz6wzq9T6-14" edge="1">
          <mxGeometry relative="1" as="geometry">
            <mxPoint x="-1275" y="-580" as="sourcePoint" />
            <mxPoint x="-1115" y="-580" as="targetPoint" />
          </mxGeometry>
        </mxCell>
        <mxCell id="G_zqbz2y6yFYz6wzq9T6-16" value="N" style="resizable=0;html=1;whiteSpace=wrap;align=right;verticalAlign=bottom;" parent="G_zqbz2y6yFYz6wzq9T6-15" connectable="0" vertex="1">
          <mxGeometry x="1" relative="1" as="geometry">
            <mxPoint x="4" as="offset" />
          </mxGeometry>
        </mxCell>
        <mxCell id="G_zqbz2y6yFYz6wzq9T6-17" value="Friend === CourseDiscountFriend" style="shape=ext;margin=3;double=1;whiteSpace=wrap;html=1;align=center;" parent="1" vertex="1">
          <mxGeometry x="-1062.5" y="-619" width="150" height="40" as="geometry" />
        </mxCell>
        <mxCell id="G_zqbz2y6yFYz6wzq9T6-18" value="R" style="shape=rhombus;perimeter=rhombusPerimeter;whiteSpace=wrap;html=1;align=center;" parent="1" vertex="1">
          <mxGeometry x="-1032.5" y="-720" width="90" height="60" as="geometry" />
        </mxCell>
        <mxCell id="G_zqbz2y6yFYz6wzq9T6-19" value="" style="endArrow=none;html=1;rounded=0;" parent="1" source="G_zqbz2y6yFYz6wzq9T6-17" target="G_zqbz2y6yFYz6wzq9T6-18" edge="1">
          <mxGeometry relative="1" as="geometry">
            <mxPoint x="-1345" y="-800" as="sourcePoint" />
            <mxPoint x="-1185" y="-800" as="targetPoint" />
          </mxGeometry>
        </mxCell>
        <mxCell id="G_zqbz2y6yFYz6wzq9T6-20" value="N" style="resizable=0;html=1;whiteSpace=wrap;align=right;verticalAlign=bottom;" parent="G_zqbz2y6yFYz6wzq9T6-19" connectable="0" vertex="1">
          <mxGeometry x="1" relative="1" as="geometry">
            <mxPoint y="16" as="offset" />
          </mxGeometry>
        </mxCell>
        <mxCell id="G_zqbz2y6yFYz6wzq9T6-21" value="" style="endArrow=none;html=1;rounded=0;" parent="1" source="G_zqbz2y6yFYz6wzq9T6-13" target="G_zqbz2y6yFYz6wzq9T6-18" edge="1">
          <mxGeometry relative="1" as="geometry">
            <mxPoint x="-1305" y="-770" as="sourcePoint" />
            <mxPoint x="-1145" y="-770" as="targetPoint" />
          </mxGeometry>
        </mxCell>
        <mxCell id="G_zqbz2y6yFYz6wzq9T6-22" value="1" style="resizable=0;html=1;whiteSpace=wrap;align=right;verticalAlign=bottom;" parent="G_zqbz2y6yFYz6wzq9T6-21" connectable="0" vertex="1">
          <mxGeometry x="1" relative="1" as="geometry">
            <mxPoint as="offset" />
          </mxGeometry>
        </mxCell>
        <mxCell id="G_zqbz2y6yFYz6wzq9T6-23" value="" style="endArrow=none;html=1;rounded=0;" parent="1" source="G_zqbz2y6yFYz6wzq9T6-12" target="G_zqbz2y6yFYz6wzq9T6-14" edge="1">
          <mxGeometry relative="1" as="geometry">
            <mxPoint x="-1420" y="-700" as="sourcePoint" />
            <mxPoint x="-1260" y="-700" as="targetPoint" />
          </mxGeometry>
        </mxCell>
        <mxCell id="G_zqbz2y6yFYz6wzq9T6-24" value="1" style="resizable=0;html=1;whiteSpace=wrap;align=right;verticalAlign=bottom;" parent="G_zqbz2y6yFYz6wzq9T6-23" connectable="0" vertex="1">
          <mxGeometry x="1" relative="1" as="geometry" />
        </mxCell>
        <mxCell id="G_zqbz2y6yFYz6wzq9T6-25" value="Discount" style="rounded=1;arcSize=10;whiteSpace=wrap;html=1;align=center;" parent="1" vertex="1">
          <mxGeometry x="-1337.5" y="-610" width="100" height="40" as="geometry" />
        </mxCell>
        <mxCell id="G_zqbz2y6yFYz6wzq9T6-26" value="R" style="shape=rhombus;perimeter=rhombusPerimeter;whiteSpace=wrap;html=1;align=center;" parent="1" vertex="1">
          <mxGeometry x="-1315.5" y="-710" width="55" height="60" as="geometry" />
        </mxCell>
        <mxCell id="G_zqbz2y6yFYz6wzq9T6-27" value="" style="shape=link;html=1;rounded=0;" parent="1" source="G_zqbz2y6yFYz6wzq9T6-25" target="G_zqbz2y6yFYz6wzq9T6-26" edge="1">
          <mxGeometry relative="1" as="geometry">
            <mxPoint x="-1490" y="-650" as="sourcePoint" />
            <mxPoint x="-1330" y="-650" as="targetPoint" />
          </mxGeometry>
        </mxCell>
        <mxCell id="G_zqbz2y6yFYz6wzq9T6-28" value="1" style="resizable=0;html=1;whiteSpace=wrap;align=right;verticalAlign=bottom;" parent="G_zqbz2y6yFYz6wzq9T6-27" connectable="0" vertex="1">
          <mxGeometry x="1" relative="1" as="geometry">
            <mxPoint y="14" as="offset" />
          </mxGeometry>
        </mxCell>
        <mxCell id="G_zqbz2y6yFYz6wzq9T6-29" value="" style="endArrow=none;html=1;rounded=0;" parent="1" source="G_zqbz2y6yFYz6wzq9T6-12" target="G_zqbz2y6yFYz6wzq9T6-26" edge="1">
          <mxGeometry relative="1" as="geometry">
            <mxPoint x="-1470" y="-720" as="sourcePoint" />
            <mxPoint x="-1310" y="-720" as="targetPoint" />
          </mxGeometry>
        </mxCell>
        <mxCell id="G_zqbz2y6yFYz6wzq9T6-30" value="1" style="resizable=0;html=1;whiteSpace=wrap;align=right;verticalAlign=bottom;" parent="G_zqbz2y6yFYz6wzq9T6-29" connectable="0" vertex="1">
          <mxGeometry x="1" relative="1" as="geometry" />
        </mxCell>
        <mxCell id="pOlUJS17UwHzJJt9zdOD-1" value="Relationship" style="shape=rhombus;perimeter=rhombusPerimeter;whiteSpace=wrap;html=1;align=center;" vertex="1" parent="1">
          <mxGeometry x="-1520" y="-940" width="120" height="60" as="geometry" />
        </mxCell>
        <mxCell id="pOlUJS17UwHzJJt9zdOD-2" value="" style="endArrow=none;html=1;rounded=0;" edge="1" parent="1" source="G_zqbz2y6yFYz6wzq9T6-11" target="pOlUJS17UwHzJJt9zdOD-1">
          <mxGeometry relative="1" as="geometry">
            <mxPoint x="-1620" y="-820" as="sourcePoint" />
            <mxPoint x="-1460" y="-820" as="targetPoint" />
          </mxGeometry>
        </mxCell>
        <mxCell id="pOlUJS17UwHzJJt9zdOD-3" value="N" style="resizable=0;html=1;whiteSpace=wrap;align=right;verticalAlign=bottom;" connectable="0" vertex="1" parent="pOlUJS17UwHzJJt9zdOD-2">
          <mxGeometry x="1" relative="1" as="geometry">
            <mxPoint x="11" as="offset" />
          </mxGeometry>
        </mxCell>
        <mxCell id="pOlUJS17UwHzJJt9zdOD-6" value="" style="endArrow=none;html=1;rounded=0;" edge="1" parent="1" source="G_zqbz2y6yFYz6wzq9T6-10" target="pOlUJS17UwHzJJt9zdOD-1">
          <mxGeometry relative="1" as="geometry">
            <mxPoint x="-1750" y="-860" as="sourcePoint" />
            <mxPoint x="-1590" y="-860" as="targetPoint" />
            <Array as="points">
              <mxPoint x="-1590" y="-910" />
            </Array>
          </mxGeometry>
        </mxCell>
        <mxCell id="pOlUJS17UwHzJJt9zdOD-7" value="1" style="resizable=0;html=1;whiteSpace=wrap;align=right;verticalAlign=bottom;" connectable="0" vertex="1" parent="pOlUJS17UwHzJJt9zdOD-6">
          <mxGeometry x="1" relative="1" as="geometry" />
        </mxCell>
        <mxCell id="pOlUJS17UwHzJJt9zdOD-8" value="Relationship" style="shape=rhombus;perimeter=rhombusPerimeter;whiteSpace=wrap;html=1;align=center;" vertex="1" parent="1">
          <mxGeometry x="-1520" y="-810" width="120" height="60" as="geometry" />
        </mxCell>
        <mxCell id="pOlUJS17UwHzJJt9zdOD-9" value="" style="endArrow=none;html=1;rounded=0;" edge="1" parent="1" source="G_zqbz2y6yFYz6wzq9T6-12" target="pOlUJS17UwHzJJt9zdOD-8">
          <mxGeometry relative="1" as="geometry">
            <mxPoint x="-1327" y="-900" as="sourcePoint" />
            <mxPoint x="-1390" y="-900" as="targetPoint" />
          </mxGeometry>
        </mxCell>
        <mxCell id="pOlUJS17UwHzJJt9zdOD-10" value="N" style="resizable=0;html=1;whiteSpace=wrap;align=right;verticalAlign=bottom;" connectable="0" vertex="1" parent="pOlUJS17UwHzJJt9zdOD-9">
          <mxGeometry x="1" relative="1" as="geometry">
            <mxPoint x="11" as="offset" />
          </mxGeometry>
        </mxCell>
        <mxCell id="pOlUJS17UwHzJJt9zdOD-11" value="" style="endArrow=none;html=1;rounded=0;" edge="1" parent="1" source="G_zqbz2y6yFYz6wzq9T6-10" target="pOlUJS17UwHzJJt9zdOD-8">
          <mxGeometry relative="1" as="geometry">
            <mxPoint x="-1760" y="-760" as="sourcePoint" />
            <mxPoint x="-1600" y="-760" as="targetPoint" />
            <Array as="points">
              <mxPoint x="-1590" y="-780" />
            </Array>
          </mxGeometry>
        </mxCell>
        <mxCell id="pOlUJS17UwHzJJt9zdOD-12" value="1" style="resizable=0;html=1;whiteSpace=wrap;align=right;verticalAlign=bottom;" connectable="0" vertex="1" parent="pOlUJS17UwHzJJt9zdOD-11">
          <mxGeometry x="1" relative="1" as="geometry" />
        </mxCell>
        <mxCell id="pOlUJS17UwHzJJt9zdOD-13" value="Relationship" style="shape=rhombus;perimeter=rhombusPerimeter;whiteSpace=wrap;html=1;align=center;" vertex="1" parent="1">
          <mxGeometry x="-1520" y="-521" width="120" height="60" as="geometry" />
        </mxCell>
        <mxCell id="pOlUJS17UwHzJJt9zdOD-14" value="" style="endArrow=none;html=1;rounded=0;" edge="1" parent="1" source="G_zqbz2y6yFYz6wzq9T6-10" target="pOlUJS17UwHzJJt9zdOD-13">
          <mxGeometry relative="1" as="geometry">
            <mxPoint x="-1670" y="-630" as="sourcePoint" />
            <mxPoint x="-1510" y="-630" as="targetPoint" />
            <Array as="points">
              <mxPoint x="-1590" y="-490" />
            </Array>
          </mxGeometry>
        </mxCell>
        <mxCell id="pOlUJS17UwHzJJt9zdOD-15" value="1" style="resizable=0;html=1;whiteSpace=wrap;align=right;verticalAlign=bottom;" connectable="0" vertex="1" parent="pOlUJS17UwHzJJt9zdOD-14">
          <mxGeometry x="1" relative="1" as="geometry" />
        </mxCell>
      </root>
    </mxGraphModel>
  </diagram>
</mxfile>
